PathFileType	4	(X/Y/Z)	Patient4_TMGait_0pt4_03_right_25.trc.trc
DataRate	CameraRate	NumFrames	NumMarkers	Units	OrigDataRate	OrigDataStartFrame	OrigNumFrames
74.074074074074	74.074074074074	6	33	mm	74.074074074074	71	       141
Frame#	Time	Sacral			L.Shoulder			Chest			R.Shoulder			Neck			R.ASIS			L.ASIS			R.Thigh.Superior			R.Thigh.Lateral			R.Thigh.Inferior			R.Patella			L.Thigh.Superior			L.Thigh.Lateral			L.Thigh.Inferior			L.Patella			L.Shank.Superior			L.Shank.Lateral			L.Shank.Inferior			R.Shank.Superior			R.Shank.Lateral			R.Shank.Inferior			R.Heel			R.Midfoot.Superior			R.Midfoot.Lateral			R.Toe			L.Heel			L.Midfoot.Lateral			L.Midfoot.Superior			L.Toe			L.Elbow			L.Wrist			R.Elbow			R.Wrist			
		X1	Y1	Z1	X2	Y2	Z2	X3	Y3	Z3	X4	Y4	Z4	X5	Y5	Z5	X6	Y6	Z6	X7	Y7	Z7	X8	Y8	Z8	X9	Y9	Z9	X10	Y10	Z10	X11	Y11	Z11	X12	Y12	Z12	X13	Y13	Z13	X14	Y14	Z14	X15	Y15	Z15	X16	Y16	Z16	X17	Y17	Z17	X18	Y18	Z18	X19	Y19	Z19	X20	Y20	Z20	X21	Y21	Z21	X22	Y22	Z22	X23	Y23	Z23	X24	Y24	Z24	X25	Y25	Z25	X26	Y26	Z26	X27	Y27	Z27	X28	Y28	Z28	X29	Y29	Z29	X30	Y30	Z30	X31	Y31	Z31	X32	Y32	Z32	X33	Y33	Z33	

71	33.155000000000	833.474133780796	1001.599420154814	510.903539123202	981.270274053900	1428.007035622745	309.249105068215	1110.311739985990	1359.005073230052	450.161444666114	1058.109548002068	1430.793698154309	636.730931242958	988.595072674788	1488.730264100492	465.809102063040	1073.753190638088	935.685592569800	599.374502479349	1026.287669398957	952.152481214883	327.126408111959	1069.632538742241	724.406055349515	573.052850518721	968.785612042960	629.361475140495	640.677810976372	1024.581936181660	564.360969200913	558.128639148086	1007.122854466843	479.602985635655	563.953482882121	1097.369375627896	761.287894819738	347.390126605707	1036.268885182450	635.009556645635	272.209579031327	1143.723349976663	574.176242657549	323.384120861891	1168.854754752849	511.797292563995	318.618576253967	1151.810975168497	441.942979153526	308.328866301838	1083.454618950760	312.521501159414	260.041137822060	1176.259531675337	213.315310098798	304.215794731723	968.402320785007	396.486170187414	571.260590330717	888.290827686897	301.243909060689	637.088822947137	914.905775903885	202.823320271093	569.201445716748	766.082951378580	43.731927149175	542.903209422240	938.432856958871	95.446738413957	573.485446023831	851.428355469415	36.477807802535	614.541176166363	1059.451799041761	41.782624931413	597.199415459367	1094.884607179429	40.755531933142	346.306380789395	1163.478584459938	41.351973091881	261.792009466780	1240.840687165737	112.314210637792	279.650701118699	1369.977397469024	73.651347913662	243.891733867865	850.784380856897	1094.608314598002	225.498896920135	848.305911121449	832.920796066416	262.281741501519	1185.782523468617	1113.204503802269	751.244237408977	1428.021095993767	1159.565011201470	698.299149305411	
72	33.168500000000	834.278166988136	1000.568173020209	507.695259927968	981.739274494090	1426.922744642798	306.066712244529	1110.470386419165	1358.477068919678	447.549198565931	1057.310903452603	1430.217163619710	633.896725080350	988.480357981967	1487.922627474564	462.665796034245	1074.389987262527	935.003381096665	597.338796800567	1027.970708867678	951.032161330519	325.063681568000	1070.050856467933	723.466991058799	571.419878703091	968.429917037134	628.833706142268	638.821863427660	1024.225359331439	563.392540106320	556.645491836025	1006.070566611257	478.382156730829	562.409171220570	1098.799558067407	759.181579861685	346.182287948623	1036.405699880160	633.147783846329	271.854840710605	1143.244356696783	572.103599595540	323.809412688142	1167.476822582166	508.996239282440	319.407875893134	1149.786949032818	438.864672633800	308.973355312322	1079.695189156097	310.107906277557	261.331886671815	1171.033902132046	209.913119311249	306.123260215392	966.515277119727	395.607716519962	570.005109994571	885.396730237352	301.424937121993	636.186813558800	910.900100979966	202.480972120238	568.700360994939	760.746765920951	44.149478686923	543.011323652469	933.170710970353	95.492645326340	573.486048035956	846.071469095381	36.593525729279	614.528589610371	1054.071334898131	41.555932662681	597.268809292069	1086.486985556560	39.781752243600	348.696403836432	1154.957533703145	39.267949480306	263.984375868727	1234.233240900655	107.909202249241	282.459969517369	1362.524550649662	66.013988288905	246.180349799751	852.181259159643	1093.218993371118	222.296195498162	851.323845249086	831.421947349203	258.882104547984	1185.027129818226	1112.167189498221	748.145973737761	1428.383573745361	1155.157207579498	696.488023178745	
73	33.182000000000	835.063407041366	999.689319636138	504.431146081322	982.353298252985	1425.898125662332	302.687242292016	1110.738453223767	1358.029656127655	444.774447837577	1056.626459435679	1429.800151043429	630.877956006945	988.491804273397	1487.235443950065	459.310637383939	1075.027597225027	934.381649245712	595.125860821967	1029.563154883252	950.138800267040	322.884479193257	1070.616049094261	722.597618581781	569.560077893549	968.371544942536	628.315180170687	636.782041237789	1024.187368737451	562.457334549158	554.944993043576	1005.383267381063	477.131368143183	560.654432628028	1100.387051676799	757.552822959464	344.913060891265	1036.919634206729	631.845123898864	271.275781044627	1143.107508319198	570.647948609760	324.138582689182	1166.326704102009	506.709734351482	320.061517363465	1148.123965354353	436.250343079010	309.330042016929	1076.426762212593	308.208822259600	262.011815035085	1166.127831505421	206.991344275259	307.629664018822	964.923876536302	394.714374181892	568.581900447276	882.763026479568	301.684329995820	635.169021768706	907.034627673304	202.197983677393	568.132025784525	755.444666181151	44.782829916640	543.134997406785	927.978036060638	95.588959911093	573.492510038605	840.752561873674	36.818286532039	614.524909246821	1048.714281039535	41.279052393223	597.347345779234	1078.383424004473	39.041771519878	350.443989359633	1146.830126395358	37.671668714915	265.622965920699	1227.755428513372	104.235150733004	284.861021959336	1355.343109193504	59.534626465834	248.216295545716	854.213111305968	1091.631055171537	218.894081485978	855.000930449951	829.697287182284	254.550761688959	1183.553064721484	1111.009652115979	745.209151063251	1428.142189269174	1149.713125406532	694.896319485666	
74	33.195500000000	835.814370761230	999.025048417696	501.150534892059	983.096409143585	1424.990981421731	299.150759182027	1111.120015576660	1357.690428941459	441.844366042325	1056.120474352862	1429.589718972883	627.685159142275	988.647641393259	1486.713940088740	455.774356292682	1075.646021722912	933.865228002469	592.729342008650	1031.001286335121	949.528283714062	320.565773714809	1071.268840099002	721.851163508639	567.471056380208	968.567140682659	627.859377587626	634.573222246613	1024.431609221280	561.606019927374	553.048095360764	1005.058443372373	475.889037631521	558.746544337151	1102.074227257149	756.519430879115	343.518463437094	1037.818185780796	631.165149768256	270.413349474758	1143.355259101498	569.878161449103	324.218432863906	1165.450357570316	505.026574022487	320.436398367751	1146.880688951756	434.189861645361	309.324073805784	1073.756801850644	306.893795447164	262.011811847484	1161.670459915140	204.654718305400	308.662735404677	963.609401324923	393.851157583630	567.029534109565	880.366578651858	302.067025684175	634.055816284231	903.312545805026	202.022938789584	567.522915003759	750.182995895250	45.691573498135	543.277100972783	922.878922966397	95.749351677163	573.517351434836	835.478016852229	37.178827625565	614.532955245444	1043.387964835534	40.952178880244	597.433629826087	1070.836045917724	38.546756711993	351.560961600556	1139.332662050708	36.566603392380	266.702403669386	1221.565774975082	101.417193414004	286.729442378299	1348.614499458124	54.469607587855	249.869842288018	856.870820513669	1089.919245044107	215.294066920487	859.353435593060	827.828999274271	249.296054685771	1181.363529427778	1109.772011627328	742.418885394576	1427.253048726282	1143.224686260837	693.532257937431	
75	33.209000000000	836.527797638100	998.615706478116	497.873654434003	983.937412497881	1424.250449665215	295.500902119524	1111.606886743480	1357.482650752987	438.770068306242	1055.835421177880	1429.618033781015	624.334325495563	988.949454609307	1486.390337353307	452.093593892667	1076.234051491106	933.495105147923	590.141805271994	1032.248460854540	949.232098888002	318.074974383195	1071.958869526479	721.277419160144	565.155055001105	968.981184537176	627.515662253915	632.216212327979	1024.933076997166	560.886029301884	550.983540459262	1005.104822175097	474.688676613239	556.759647602276	1103.804962819266	756.144696963403	341.934028843755	1039.092860537253	631.105465592054	269.231835306870	1144.001805511381	569.779557035440	323.918832291079	1164.875837129548	503.951786457631	320.423915550381	1146.064709520677	432.694026845591	308.933185418629	1071.692198972276	306.163685766719	261.355507132905	1157.682155867931	202.921854975454	309.224071352709	962.562860910644	393.058565406352	565.398721745184	878.189064296164	302.614583831052	632.874503415469	899.742524872038	201.999275000703	566.905067792156	744.968156535329	46.929537106414	543.440189849097	917.897074622078	95.982511094467	573.573330535691	830.252921524273	37.697226665407	614.556100254619	1038.098309588742	40.581389215992	597.524405743442	1063.947219179410	38.275251459473	352.125105054787	1132.537806500846	35.901992481688	267.278832317354	1215.713321201894	99.462331905255	288.026246433109	1342.388362799910	50.871828569290	251.075869284175	860.129957485077	1088.159691292884	211.486836999451	864.429385729623	825.905929005760	243.166410736326	1178.473438254821	1108.498089604120	739.754435072321	1425.671667593661	1135.682821042371	692.402191200182	
76	33.222500000000	837.211507860194	998.474124404504	494.597165844607	984.834779691513	1423.711671246447	291.778432451348	1112.179312570462	1357.423629931014	435.565496354414	1055.783188115321	1429.897024809740	620.845776219666	989.382583005459	1486.280588100694	448.306153597800	1076.789494470848	933.303533207544	587.355183858981	1033.301815092931	949.253360314898	315.376137641482	1072.652780362922	720.915287908362	562.621989113103	969.591129065826	627.321521578123	629.737025887727	1025.683781989555	560.334579613461	548.787004798176	1005.545002098504	473.553482511175	554.778831724939	1105.529631166537	756.417350437220	340.101940702632	1040.692447367695	631.589240754647	267.727061878495	1145.009013058453	570.244504783622	323.150156965025	1164.592873450253	503.408192673244	319.972529014458	1145.624934867200	431.701368151488	308.189481938824	1070.152979118671	305.951251387812	260.153744273370	1154.102205797565	201.737271923201	309.380859206549	961.789032141923	392.367355909770	563.748289934684	876.221086774052	303.360739629374	631.656520427655	896.339937599097	202.160784533364	566.313242999642	739.807412730991	48.540532240551	543.626392838826	913.054397530854	96.289992489821	573.671856872164	825.081088517642	38.389190184805	614.597874053685	1032.848481273482	40.179133310053	597.614516995343	1057.693343769098	38.183525907474	352.255585423388	1126.395023296283	35.592395022522	267.450531179024	1210.171432529463	98.280178347908	288.792004291185	1336.620554887817	48.618385177846	251.837047107923	863.947539675641	1086.423815953667	207.455682692756	870.293917706227	824.017775651952	236.245132186977	1174.911917019486	1107.231344816498	737.191906329869	1423.352610121569	1127.083012919617	691.507589037405	
